<svg width="84" height="84" viewBox="0 0 84 84" fill="none" xmlns="http://www.w3.org/2000/svg">
<path d="M61.1805 84H61.2981C63.5158 84 65.6117 83.1264 67.1993 81.5387L78.5902 70.1477C78.9806 69.758 79.2903 69.2951 79.5016 68.7856C79.7129 68.276 79.8217 67.7298 79.8217 67.1782C79.8217 66.6265 79.7129 66.0803 79.5016 65.5708C79.2903 65.0612 78.9806 64.5983 78.5902 64.2086L61.7895 47.4078C61.3998 47.0174 60.9369 46.7077 60.4274 46.4963C59.9178 46.285 59.3716 46.1763 58.82 46.1763C58.2684 46.1763 57.7222 46.285 57.2126 46.4963C56.7031 46.7077 56.2402 47.0174 55.8505 47.4078L49.1554 54.1029C46.0515 53.1789 40.2595 51.0788 36.5885 47.4078C32.9176 43.7368 30.8175 37.9447 29.8935 34.8407L36.5885 28.1456C36.9789 27.7559 37.2886 27.293 37.5 26.7834C37.7113 26.2739 37.82 25.7277 37.82 25.1761C37.82 24.6244 37.7113 24.0782 37.5 23.5687C37.2886 23.0591 36.9789 22.5962 36.5885 22.2065L19.7879 5.40567C18.9849 4.64775 17.9225 4.22555 16.8184 4.22555C15.7142 4.22555 14.6518 4.64775 13.8489 5.40567L2.46221 16.7966C0.866143 18.3927 -0.0326918 20.5852 0.000909524 22.8239C0.0975133 28.805 1.68097 49.5793 18.0532 65.9517C34.4255 82.3241 55.1995 83.9034 61.1805 84V84ZM16.8226 14.3143L27.6842 25.1761L22.2534 30.6069C21.7592 31.0998 21.3961 31.7085 21.1973 32.3775C20.9985 33.0466 20.9703 33.7548 21.1151 34.4375C21.2159 34.9205 23.6814 46.3745 30.6537 53.3469C37.626 60.3192 49.0798 62.7847 49.5628 62.8855C50.2456 63.0312 50.954 63.0033 51.6232 62.8045C52.2923 62.6056 52.901 62.2422 53.3934 61.7473L58.8242 56.3164L69.6858 67.1782L61.2603 75.5996C56.0185 75.5114 38.0838 74.1043 23.9922 60.0084C9.85449 45.8705 8.48524 27.8726 8.40124 22.7357L16.8226 14.3143ZM75.5997 37.7977H84C84 16.2506 67.7328 0 46.1565 0V8.40042C63.2176 8.40042 75.5997 20.7616 75.5997 37.7977V37.7977Z" fill="#F5F5F5"/>
<path d="M46.1987 25.2013C55.0317 25.2013 58.7992 28.9689 58.7992 37.8019H67.1996C67.1996 24.2562 59.7443 16.8008 46.1987 16.8008V25.2013V25.2013Z" fill="#F5F5F5"/>
</svg>
