<svg width="83" height="98" viewBox="0 0 83 98" fill="none" xmlns="http://www.w3.org/2000/svg">
<mask id="path-1-outside-1" maskUnits="userSpaceOnUse" x="0" y="9.15527e-05" width="83" height="98" fill="black">
<rect fill="white" y="9.15527e-05" width="83" height="98"/>
<path d="M75.7273 41.177C75.7273 67.759 41.3636 90.5436 41.3636 90.5436C41.3636 90.5436 7 67.759 7 41.177C7 36.6888 7.88884 32.2446 9.61578 28.098C11.3427 23.9515 13.8739 20.1839 17.0649 17.0103C20.2558 13.8367 24.0441 11.3192 28.2132 9.60165C32.3824 7.8841 36.8509 7.00009 41.3636 7.00009C45.8763 7.00009 50.3449 7.8841 54.514 9.60165C58.6832 11.3192 62.4715 13.8367 65.6624 17.0103C68.8534 20.1839 71.3846 23.9515 73.1115 28.098C74.8385 32.2446 75.7273 36.6888 75.7273 41.177V41.177Z"/>
</mask>
<path d="M75.7273 41.177C75.7273 67.759 41.3636 90.5436 41.3636 90.5436C41.3636 90.5436 7 67.759 7 41.177C7 36.6888 7.88884 32.2446 9.61578 28.098C11.3427 23.9515 13.8739 20.1839 17.0649 17.0103C20.2558 13.8367 24.0441 11.3192 28.2132 9.60165C32.3824 7.8841 36.8509 7.00009 41.3636 7.00009C45.8763 7.00009 50.3449 7.8841 54.514 9.60165C58.6832 11.3192 62.4715 13.8367 65.6624 17.0103C68.8534 20.1839 71.3846 23.9515 73.1115 28.098C74.8385 32.2446 75.7273 36.6888 75.7273 41.177V41.177Z" stroke="#F5F5F5" stroke-width="14" stroke-linecap="round" stroke-linejoin="round" mask="url(#path-1-outside-1)"/>
<mask id="path-2-outside-2" maskUnits="userSpaceOnUse" x="22.9092" y="22.7845" width="37" height="37" fill="black">
<rect fill="white" x="22.9092" y="22.7845" width="37" height="37"/>
<path d="M52.8182 41.1768C52.8182 43.43 52.1464 45.6326 50.8878 47.5061C49.6292 49.3795 47.8402 50.8397 45.7472 51.7019C43.6541 52.5642 41.351 52.7898 39.129 52.3502C36.9071 51.9107 34.8661 50.8256 33.2641 49.2324C31.6622 47.6392 30.5713 45.6093 30.1293 43.3994C29.6873 41.1895 29.9141 38.8989 30.7811 36.8172C31.6481 34.7355 33.1162 32.9563 34.9999 31.7045C36.8836 30.4527 39.0982 29.7845 41.3637 29.7845C44.4016 29.7845 47.3151 30.9848 49.4633 33.1213C51.6114 35.2577 52.8182 38.1554 52.8182 41.1768V41.1768Z"/>
</mask>
<path d="M52.8182 41.1768C52.8182 43.43 52.1464 45.6326 50.8878 47.5061C49.6292 49.3795 47.8402 50.8397 45.7472 51.7019C43.6541 52.5642 41.351 52.7898 39.129 52.3502C36.9071 51.9107 34.8661 50.8256 33.2641 49.2324C31.6622 47.6392 30.5713 45.6093 30.1293 43.3994C29.6873 41.1895 29.9141 38.8989 30.7811 36.8172C31.6481 34.7355 33.1162 32.9563 34.9999 31.7045C36.8836 30.4527 39.0982 29.7845 41.3637 29.7845C44.4016 29.7845 47.3151 30.9848 49.4633 33.1213C51.6114 35.2577 52.8182 38.1554 52.8182 41.1768V41.1768Z" stroke="#F5F5F5" stroke-width="14" stroke-linecap="round" stroke-linejoin="round" mask="url(#path-2-outside-2)"/>
</svg>
