<svg width="92" height="92" viewBox="0 0 92 92" fill="none" xmlns="http://www.w3.org/2000/svg">
<path d="M88 45.7718C88 54.0335 85.5367 62.1096 80.9217 68.979C76.3067 75.8483 69.7472 81.2023 62.0727 84.3639C54.3982 87.5255 45.9534 88.3527 37.8062 86.7409C29.659 85.1292 22.1753 81.1508 16.3015 75.3089C10.4277 69.467 6.42762 62.024 4.80704 53.9211C3.18646 45.8182 4.0182 37.4193 7.19708 29.7865C10.376 22.1537 15.7592 15.6298 22.6661 11.0399C29.5729 6.44996 37.6932 4.00009 46 4.00009C51.5155 4.00009 56.977 5.08055 62.0727 7.17978C67.1684 9.279 71.7984 12.3559 75.6985 16.2347C79.5985 20.1136 82.6922 24.7185 84.8029 29.7865C86.9136 34.8545 88 40.2863 88 45.7718V45.7718Z" stroke="#F5F5F5" stroke-width="7" stroke-linecap="round" stroke-linejoin="round"/>
<path d="M46 20.7088V45.7718L62.7999 54.1262" stroke="#F5F5F5" stroke-width="7" stroke-linecap="round" stroke-linejoin="round"/>
</svg>
