<svg width="24" height="24" viewBox="0 0 24 24" fill="none" xmlns="http://www.w3.org/2000/svg">
<g class="arrow-right">
<path id="Vector" d="M12.001 22.007C17.514 22.006 22 17.52 22.001 12.006C22.001 6.49202 17.515 2.00602 12 2.00602C6.48601 2.00702 2.00001 6.49302 2.00001 12.006C2.00001 17.52 6.48601 22.006 12.001 22.007V22.007ZM12 4.00602C16.412 4.00602 20.001 7.59502 20.001 12.006C20 16.417 16.411 20.006 12.001 20.007C7.58901 20.006 4.00001 16.417 4.00001 12.006C4.00001 7.59602 7.58901 4.00702 12 4.00602Z" fill="#2C412C"/>
<path id="Vector_2" d="M11.988 16.011L15.993 12.006L11.988 8.00199V11.006H7.99401L7.99401 13.006H11.988V16.011Z" fill="#2C412C"/>
</g>
</svg>
