<svg width="24" height="24" viewBox="0 0 24 24" fill="none" xmlns="http://www.w3.org/2000/svg">
<g id="arrow-right">
<path id="Vector" d="M12.001 22.007C17.514 22.006 22 17.52 22.001 12.006C22.001 6.492 17.515 2.006 12 2.006C6.48598 2.007 1.99998 6.493 1.99998 12.006C1.99998 17.52 6.48598 22.006 12.001 22.007ZM12 4.006C16.412 4.006 20.001 7.595 20.001 12.006C20 16.417 16.411 20.006 12.001 20.007C7.58898 20.006 3.99998 16.417 3.99998 12.006C3.99998 7.596 7.58898 4.007 12 4.006Z" fill="black"/>
<path id="Vector_2" d="M11.9989 8.002L7.9939 12.007L11.9989 16.011V13.007H15.9929V11.007H11.9989V8.002Z" fill="black"/>
</g>
</svg>
