<svg width="153" height="153" viewBox="0 0 153 153" fill="none" xmlns="http://www.w3.org/2000/svg">
<g id="calendary">
<path id="dots" d="M44.625 70.1245H57.375V82.8745H44.625V70.1245ZM44.625 95.6245H57.375V108.375H44.625V95.6245ZM70.125 70.1245H82.875V82.8745H70.125V70.1245ZM70.125 95.6245H82.875V108.375H70.125V95.6245ZM95.625 70.1245H108.375V82.8745H95.625V70.1245ZM95.625 95.6245H108.375V108.375H95.625V95.6245Z" fill="#593B34"/>
<path id="frame" d="M31.875 140.25H121.125C128.157 140.25 133.875 134.531 133.875 127.5V38.2495C133.875 31.2179 128.157 25.4995 121.125 25.4995H108.375V12.7495H95.625V25.4995H57.375V12.7495H44.625V25.4995H31.875C24.8434 25.4995 19.125 31.2179 19.125 38.2495V127.5C19.125 134.531 24.8434 140.25 31.875 140.25ZM121.125 50.9995L121.131 127.5H31.875V50.9995H121.125Z" fill="#593B34"/>
</g>
</svg>
