<svg width="85" height="193" viewBox="0 0 85 193" fill="none" xmlns="http://www.w3.org/2000/svg">
<path d="M36.1 1.6L27.3 0.799995C27.1 6.2 25.7 12.5 24.2 18.1C20.3 18.4 16.5 18.6 12.9 18.6C8.7 18.6 4.4 18.4 0.7 17.9L1.2 25.4C5 25.6 9.2 25.7 12.9 25.7C15.8 25.7 18.8 25.6 21.8 25.4C17.2 37.1 8.7 53.1 0.4 62.8L8.1 66.8C16.1 56 25 38.7 29.9 24.6C36.5 23.7 42.8 22.4 48.1 20.9L47.9 13.4C42.8 15.1 37.4 16.3 32.2 17.1C33.8 11.3 35.2 5.2 36.1 1.6ZM30.6 71C30.6 66.4 35.6 63 42.9 63C46.5 63 50 63.5 53.2 64.5C53.3 66.2 53.3 67.7 53.3 69C53.3 74.5 50.5 78.9 42.2 78.9C34.4 78.9 30.6 75.7 30.6 71ZM59.7 32.5H51.9C52.1 39.6 52.6 49.5 53 57.7C49.9 57 46.6 56.7 43.2 56.7C31.9 56.7 23.2 62.5 23.2 71.7C23.2 81.6 32.2 86.1 43.2 86.1C55.6 86.1 60.7 79.6 60.7 71.6C60.7 70.4 60.7 69 60.6 67.4C67.1 70.6 72.5 75.1 76.8 78.9L81.1 72.1C75.9 67.7 68.9 62.8 60.3 59.7C60.1 53.5 59.7 47 59.6 43.3C59.5 39.7 59.5 36.6 59.7 32.5ZM79.7 35.2L84.2 28.6C79.5 25 68.1 18.5 60.9 15.3L56.8 21.4C63.5 24.4 74.3 30.6 79.7 35.2ZM27.48 136V142.4C36.28 143.36 51.8 143.36 60.36 142.4V135.92C52.36 137.12 36.2 137.44 27.48 136ZM30.6 168.56L24.84 168C23.96 171.92 23.48 174.72 23.48 177.44C23.48 184.96 29.48 189.44 42.92 189.44C51.16 189.44 57.88 188.72 62.92 187.76L62.76 181.04C56.28 182.48 50.12 183.12 42.92 183.12C32.04 183.12 29.4 179.6 29.4 175.92C29.4 173.76 29.8 171.52 30.6 168.56ZM12.2 129.84L5.08 129.2C5.08 130.96 4.84 133.04 4.52 134.88C3.56 141.52 0.92 155.2 0.92 166.96C0.92 177.76 2.28 186.96 3.88 192.64L9.64 192.24C9.56 191.44 9.48 190.32 9.4 189.44C9.32 188.56 9.56 187.04 9.8 185.84C10.52 182.08 13.4 173.6 15.48 167.92L12.12 165.36C10.76 168.64 8.84 173.44 7.48 177.04C7 173.12 6.76 169.76 6.76 165.84C6.76 156.88 9.24 142.56 10.76 135.2C11.08 133.76 11.8 131.2 12.2 129.84Z" fill="#448C30" fill-opacity="0.5"/>
</svg>
