<svg width="93" height="221" viewBox="0 0 93 221" fill="none" xmlns="http://www.w3.org/2000/svg">
<path d="M72.1551 13.2V20.2H52.0551C52.7551 18.1 53.6551 15.7 54.4551 13.2H72.1551ZM90.9551 20.2H78.9551V7.8H56.1551C56.8551 5.5 57.5551 3.3 58.1551 1.19999L50.9551 0.299999C50.3551 2.6 49.5551 5.2 48.8551 7.8H32.2551V13.2H47.0551C46.2551 15.7 45.4551 18.1 44.6551 20.2H25.7551V25.6H90.9551V20.2ZM44.8551 66.1V58.7H60.8551V66.1H44.8551ZM40.5551 35.3H73.8551V42.9H40.5551V35.3ZM60.8551 79.8H67.8551V71.4H90.8551V66.1H67.8551V58.7H88.2551V53.2H67.8551V47.8H81.0551V30.5H33.7551V47.8H60.8551V53.2H28.7551V58.7H38.0551V66.1H25.7551V71.4H60.8551V79.8ZM23.2551 18.6C20.3551 13.9 13.9551 7.4 8.35513 2.99999L2.65513 7C8.15513 11.7 14.4551 18.3 17.1551 23L23.2551 18.6ZM21.4551 39.5H1.75513V46.5H14.4551V72.1C9.95513 76.3 4.85513 80.5 0.655127 83.6L4.55513 90.7C9.45513 86.4 14.0551 82.2 18.4551 77.9C24.6551 85.7 33.6551 89.2 46.7551 89.7C57.9551 90.2 79.0551 90 90.2551 89.5C90.5551 87.3 91.7551 83.9 92.6551 82.2C80.6551 83 57.6551 83.3 46.6551 82.8C34.9551 82.4 26.1551 79 21.4551 71.6V39.5ZM19.0551 150.2L9.35513 150C9.95513 152.4 10.0551 156.6 10.0551 158.9C10.0551 164.7 10.2551 176.9 11.1551 185.6C13.8551 211.5 22.9551 220.9 32.4551 220.9C39.1551 220.9 45.2551 215.1 51.2551 198.1L44.9551 191C42.3551 201 37.6551 211.4 32.5551 211.4C25.4551 211.4 20.5551 200.3 18.9551 183.6C18.2551 175.3 18.1551 166.2 18.2551 159.9C18.2551 157.3 18.6551 152.6 19.0551 150.2ZM71.1551 153L63.3551 155.7C72.9551 167.4 78.9551 187.9 80.7551 206L88.7551 202.7C87.2551 185.8 80.0551 164.6 71.1551 153Z" fill="#EDEDED"/>
</svg>
