<svg width="148" height="148" viewBox="0 0 148 148" fill="none" xmlns="http://www.w3.org/2000/svg">
<g id="Gallery">
<path id="Vector" d="M24.6667 36.9996V111H123.333V36.9996H24.6667ZM24.6667 24.6663H123.333C126.604 24.6663 129.741 25.9657 132.054 28.2786C134.367 30.5916 135.667 33.7286 135.667 36.9996V111C135.667 114.271 134.367 117.408 132.054 119.721C129.741 122.034 126.604 123.333 123.333 123.333H24.6667C21.3957 123.333 18.2587 122.034 15.9457 119.721C13.6328 117.408 12.3334 114.271 12.3334 111V36.9996C12.3334 33.7286 13.6328 30.5916 15.9457 28.2786C18.2587 25.9657 21.3957 24.6663 24.6667 24.6663ZM46.25 67.8329C48.7033 67.8329 51.0561 66.8584 52.7908 65.1237C54.5255 63.389 55.5 61.0362 55.5 58.5829C55.5 56.1297 54.5255 53.7769 52.7908 52.0422C51.0561 50.3075 48.7033 49.3329 46.25 49.3329C43.7968 49.3329 41.444 50.3075 39.7093 52.0422C37.9746 53.7769 37 56.1297 37 58.5829C37 61.0362 37.9746 63.389 39.7093 65.1237C41.444 66.8584 43.7968 67.8329 46.25 67.8329ZM43.1667 86.3329L55.5 73.9996L67.8334 86.3329L92.5 61.6663L111 80.1663V98.6663H43.1667V86.3329Z" fill="#5B8C5A"/>
</g>
</svg>
