<svg width="53" height="40" viewBox="0 0 53 40" fill="none" xmlns="http://www.w3.org/2000/svg">
<g id="gmail">
<g clip-path="url(#clip0)">
<path id="Vector" d="M49.1024 39.9165H3.32113C1.54605 39.9165 0.0513916 38.4641 0.0513916 36.6369V3.46703C0.051186 1.68661 1.49917 0.187439 3.32113 0.187439H49.1024C50.8775 0.187439 52.3725 1.63981 52.3725 3.46703V36.6369C52.3725 38.4641 50.9243 39.9165 49.1024 39.9165Z" fill="#E3E3E3"/>
<path id="Vector_2" opacity="0.1" d="M6.59128 39.9165L26.1651 24.1278L26.3053 23.2845L6.12418 8.71423L6.0773 39.2138L6.59128 39.9165V39.9165Z" fill="#231F20"/>
<path id="Vector_3" d="M3.32112 39.9165C1.49916 39.9165 0.051178 38.4641 0.051178 36.6369V3.42001C0.051178 1.59299 1.49916 1.26495 3.32112 1.26495C5.14308 1.26495 6.59127 1.6398 6.59127 3.42001V39.9165H3.32112Z" fill="#D54B3D"/>
<path id="Vector_4" d="M3.32113 1.73341C5.65686 1.73341 6.12417 2.43629 6.12417 3.42001V39.448H3.32113C1.7796 39.448 0.518291 38.1831 0.518291 36.6369V3.42001C0.518291 2.38928 0.985396 1.73341 3.32113 1.73341ZM3.32113 1.26495C1.49917 1.26495 0.0513916 1.6398 0.0513916 3.42001V36.6371C0.0513916 38.4643 1.49938 39.9167 3.32133 39.9167H6.59128V3.42001C6.59128 1.59299 5.14309 1.26495 3.32113 1.26495V1.26495Z" fill="#D72B27"/>
<path id="Vector_5" d="M49.1024 39.9165H45.8322V3.3264C45.8322 1.49918 47.2804 1.26495 49.1024 1.26495C50.9244 1.26495 52.3726 1.49918 52.3726 3.3264V36.6839C52.3726 38.4641 50.9244 39.9165 49.1024 39.9165Z" fill="#D54B3D"/>
<path id="Vector_6" d="M49.1024 1.73341C51.2046 1.73341 51.9052 2.15506 51.9052 3.3264V36.6839C51.9052 38.2299 50.6439 39.4949 49.1024 39.4949H46.2994V3.3264C46.2994 2.10825 47.0002 1.73341 49.1024 1.73341ZM49.1024 1.26495C47.2804 1.26495 45.8322 1.49918 45.8322 3.3264V39.9635H49.1024C50.9244 39.9635 52.3726 38.5109 52.3726 36.6839V3.3264C52.3726 1.49918 50.9244 1.26495 49.1024 1.26495Z" fill="#D72B27"/>
<path id="Vector_7" d="M35.0878 39.9165L0.324799 4.78247L2.15333 5.52825L26.3519 23.0035L52.3725 3.86804V36.6839C52.3725 38.4641 50.9243 39.9165 49.1023 39.9165H35.0878Z" fill="url(#paint0_linear)"/>
<path id="Vector_8" d="M26.1651 24.1279L1.45254 6.13734C0.00435178 5.05982 -0.416084 2.99837 0.65834 1.546C1.73318 0.0936291 3.83515 -0.234206 5.33001 0.84332L26.212 16.0697L47.2336 0.655691C48.6818 -0.421835 50.7373 -0.0937936 51.8117 1.40538C52.8861 2.85775 52.5592 4.9192 51.0642 5.99672L26.1649 24.1277L26.1651 24.1279Z" fill="#D54B3D"/>
<path id="Vector_9" d="M49.1032 0.468454C49.9908 0.468454 50.8317 0.890103 51.3923 1.63959C52.2798 2.90474 51.9996 4.63814 50.785 5.57526L26.1659 23.5658L1.73379 5.76268C0.472484 4.82557 0.145387 3.04515 1.03293 1.82722C1.54691 1.12433 2.43445 0.656082 3.36866 0.656082C3.97598 0.656082 4.5833 0.843299 5.0504 1.21814L25.8857 16.3975L26.1659 16.5852L26.4462 16.3975L47.4215 0.983917C47.9355 0.656082 48.4959 0.468454 49.1032 0.468454V0.468454ZM49.1032 0C48.4493 0 47.7484 0.187423 47.1879 0.609072L26.1659 16.0227L5.28396 0.796495C4.72372 0.374845 4.02306 0.187423 3.3222 0.187423C2.29444 0.187423 1.26669 0.655876 0.612698 1.54619C-0.415057 2.99835 0.00537902 5.05979 1.45357 6.13732L26.1662 24.1748L51.0185 5.99691C52.4667 4.91938 52.7938 2.90474 51.7661 1.40557C51.1121 0.468454 50.131 0 49.1032 0Z" fill="#D72B27"/>
</g>
</g>
<defs>
<linearGradient id="paint0_linear" x1="0.32688" y1="21.8915" x2="52.3891" y2="21.8915" gradientUnits="userSpaceOnUse">
<stop stop-opacity="0.1"/>
<stop offset="1" stop-opacity="0.2"/>
</linearGradient>
<clipPath id="clip0">
<rect width="52.6316" height="40" fill="white"/>
</clipPath>
</defs>
</svg>
