<svg width="104" height="281" viewBox="0 0 104 281" fill="none" xmlns="http://www.w3.org/2000/svg">
<path d="M42.7059 76.3L41.7059 69.7L30.1059 73.3V52.9H40.3059V45.7H30.1059V25.4H23.2059V45.7H15.5059C16.2059 41.3 16.9059 36.7 17.4059 32.2L10.9059 31.1C9.70591 43.3 7.80591 55.9 4.00591 64.4C5.60591 65 8.40591 66.8 9.70591 67.7C11.5059 63.6 12.9059 58.5 14.1059 52.9H23.2059V75.2C16.2059 77.4 9.80591 79.1 4.70591 80.5L6.70591 87.6C11.6059 86.1 17.3059 84.3 23.2059 82.5V116.7H30.1059V80.3L42.7059 76.3ZM56.6059 42C58.3059 37.1 59.8059 32 61.0059 26.7L54.2059 25.3C50.9059 40.4 44.9059 54.8 36.7059 63.7C38.2059 64.7 41.2059 66.8 42.4059 68C46.7059 62.9 50.5059 56.3 53.8059 49H62.4059C57.8059 65 48.9059 81.7 38.3059 90C40.4059 91.1 42.8059 92.8 44.2059 94.3C55.1059 84.8 64.3059 66.1 68.8059 49H77.0059C71.8059 74.1 61.0059 98.7 44.6059 110.5C46.8059 111.6 49.4059 113.4 50.8059 115C67.4059 101.8 78.4059 75.2 83.4059 49H88.2059C86.2059 88.6 84.0059 103.4 80.8059 106.9C79.7059 108.2 78.7059 108.6 77.1059 108.6C75.1059 108.6 71.1059 108.5 66.6059 108.1C67.9059 110.1 68.6059 113.2 68.7059 115.4C73.1059 115.7 77.4059 115.8 80.1059 115.4C83.1059 115.1 85.1059 114.2 87.0059 111.6C91.0059 106.6 93.2059 91.1 95.4059 45.8C95.5059 44.9 95.5059 42 95.5059 42H56.6059ZM37.6059 164.8H10.3059V170.8H37.6059V164.8ZM31.6059 225.2V241.9H16.0059V225.2H31.6059ZM38.1059 219.1H9.50591V252.5H16.0059V248H38.1059V219.1ZM9.70591 211.4H37.7059V205.5H9.70591V211.4ZM37.7059 191.9H9.70591V197.8H37.7059V191.9ZM5.00591 184.2H41.1059V178.1H5.00591V184.2ZM83.5059 223.6V241.3H55.7059V223.6H83.5059ZM48.7059 252.6H55.7059V248H83.5059V252.2H90.7059V217H48.7059V252.6ZM80.9059 188.2V202.7H61.7059C62.6059 198.5 63.5059 193.5 64.4059 188.2H80.9059ZM88.0059 202.7V181.8H65.5059C66.1059 178.3 66.7059 174.8 67.2059 171.5H93.6059V165H44.5059V171.5H59.9059C59.4059 174.8 58.9059 178.3 58.3059 181.8H46.0059V188.2H57.3059C56.4059 193.4 55.4059 198.5 54.5059 202.7H41.5059V209.3H96.8059V202.7H88.0059Z" fill="#4B322D"/>
</svg>
