<svg width="121" height="230" viewBox="0 0 121 230" fill="none" xmlns="http://www.w3.org/2000/svg">
<g id="my">
<path id="y" d="M78.3 169L76.8 169.3H42.7C45.5 163.2 48 157 50 151L41.7 149.1C36.1 167.6 25.2 189.7 10.3 203.5C12.4 204.5 15.6 206.5 17.3 207.9C25.9 199.5 33.2 188.5 39.1 176.8H73C68.8 186.7 62.2 198.6 55.5 207.4C49.5 203.8 43.3 200.5 37.6 197.8L32.8 203.8C46.9 210.6 63.4 221.6 71 229.9L76.3 223.1C72.9 219.5 67.8 215.6 62.1 211.7C70.6 200.5 79.2 185.1 83.9 172L78.3 169Z" fill="white"/>
<path id="m" d="M91.8 44.6C88.6 39.9 81.6 32.9 75.9 28L70.2 31.9C76 37 82.8 44.2 85.8 48.9L91.8 44.6ZM82.9 66.4C79.5 72.8 75.1 78.9 69.8 84.6C68.1 78 66.7 70.3 65.7 61.8H94.3V54.7H64.9C64.1 45.8 63.7 36.2 63.7 26.2H56.1C56.2 36 56.6 45.6 57.5 54.7H34.6V37.3C40.7 36 46.5 34.4 51.3 32.7L46 26.6C36.6 30.1 20.5 33.5 6.5 35.6C7.5 37.4 8.5 40 8.9 41.8C14.8 41 21.1 40 27.3 38.8V54.7H5.9V61.8H27.3V79.3C18.6 81.1 10.5 82.8 4.5 83.8L6.6 91.3C12.6 90 19.8 88.3 27.3 86.7V107C27.3 108.8 26.7 109.3 24.9 109.3C23.2 109.4 17.3 109.5 10.9 109.2C12 111.3 13.3 114.7 13.7 116.7C21.8 116.7 27.2 116.5 30.3 115.3C33.4 114.1 34.6 111.9 34.6 107.1V84.9C40.7 83.5 46.9 82.1 53 80.6L52.5 73.9C46.6 75.2 40.5 76.5 34.6 77.8V61.8H58.1C59.4 72.6 61.3 82.5 63.7 90.8C56.6 97.4 48.4 102.9 40 107C41.9 108.6 44 111.1 45.1 112.9C52.6 109 59.7 104 66.2 98.2C70.8 109.9 76.8 116.9 84.7 116.9C92.2 116.9 94.8 112.1 96.2 95.6C94.1 94.9 91.5 93.2 89.9 91.6C89.3 104.4 88.1 109.5 85.4 109.5C80.4 109.5 75.9 103.1 72.1 92.6C79.1 85.5 85 77.6 89.5 69.1L82.9 66.4Z" fill="white"/>
</g>
</svg>
