<svg width="145" height="145" viewBox="0 0 145 145" fill="none" xmlns="http://www.w3.org/2000/svg">
<g id="News">
<path id="Vector" d="M120.078 18.1245H24.9218C17.841 18.1245 12.0833 23.5439 12.0833 30.2078V114.791C12.0833 121.455 17.841 126.875 24.9218 126.875H120.078C127.159 126.875 132.917 121.455 132.917 114.791V30.2078C132.917 23.5439 127.159 18.1245 120.078 18.1245ZM120.078 114.791H24.9218C24.5774 114.791 24.3418 114.695 24.2391 114.695C24.1968 114.695 24.1726 114.707 24.1666 114.743L24.0941 30.4858C24.1364 30.4253 24.4083 30.2078 24.9218 30.2078H120.078C120.555 30.2139 120.815 30.377 120.833 30.2562L120.906 114.513C120.863 114.574 120.592 114.791 120.078 114.791Z" fill="#BF9663"/>
<path id="Vector_2" d="M36.25 42.2913H72.5V78.5413H36.25V42.2913ZM78.5417 90.6246H36.25V102.708H108.75V90.6246H84.5833H78.5417ZM84.5833 66.4579H108.75V78.5413H84.5833V66.4579ZM84.5833 42.2913H108.75V54.3746H84.5833V42.2913Z" fill="#BF9663"/>
</g>
</svg>
