<svg width="94" height="227" viewBox="0 0 94 227" fill="none" xmlns="http://www.w3.org/2000/svg">
<path d="M70.2722 57.4V66.4H25.1722V57.4H70.2722ZM25.1722 81.2V71.8H70.2722V81.2H25.1722ZM17.8722 90.7H25.1722V87.2H70.2722V90.5H77.8722V51.5H17.8722V90.7ZM91.1722 28.9V22.2H50.8722V11C61.8722 9.79999 72.1722 8.1 80.3722 5.9L74.7722 0.0999944C60.2722 3.9 33.7722 6.4 11.2722 7.6C12.0722 9.3 12.9722 12.1 13.1722 13.9C22.7722 13.5 33.1722 12.8 43.2722 11.8V22.2H3.27224V28.9H35.3722C26.5722 38.2 13.4722 46.7 1.27224 51C2.97224 52.5 5.17224 55.1 6.17224 56.9C19.4722 51.6 34.0722 41.1 43.2722 29.3V48.7H50.8722V29.3C60.3722 40.3 75.3722 50.5 88.3722 55.8C89.4722 54 91.5722 51.2 93.2722 49.8C81.3722 45.8 67.8722 37.6 58.8722 28.9H91.1722ZM33.2722 160.5L32.1722 160.8H2.97224V168.2H28.9722C24.1722 188.1 13.5722 203 0.572241 211.1C2.27224 212.3 5.27224 215.2 6.47224 217C21.0722 207.1 33.1722 188.6 38.1722 162.4L33.2722 160.5ZM83.2722 151.5C77.3722 159.3 67.5722 169.3 59.5722 176.3C56.0722 169.2 53.2722 161.6 51.1722 153.7V135.6H43.4722V216.1C43.4722 218.1 42.7722 218.7 40.7722 218.8C38.7722 218.8 32.3722 218.9 25.1722 218.6C26.3722 220.8 27.8722 224.5 28.1722 226.7C37.3722 226.7 43.1722 226.5 46.4722 225.2C49.7722 223.8 51.1722 221.4 51.1722 216.1V173.2C59.0722 193.7 71.0722 210.5 88.3722 219C89.5722 216.8 92.1722 213.8 93.9722 212.3C80.7722 206.6 70.3722 195.7 62.6722 182.2C71.2722 175.5 82.0722 165 89.9722 156.3L83.2722 151.5Z" fill="black"/>
</svg>
