<svg width="79" height="94" viewBox="0 0 79 94" fill="none" xmlns="http://www.w3.org/2000/svg">
<path d="M39.3636 88.5435L37.9821 90.6271C38.8195 91.1823 39.9078 91.1823 40.7452 90.6271L39.3636 88.5435ZM39.3636 88.5435C40.7452 90.6271 40.7458 90.6266 40.7467 90.6261L40.7489 90.6246L40.7558 90.62L40.7789 90.6046L40.8616 90.5489C40.9328 90.5009 41.0355 90.431 41.1677 90.3399C41.4322 90.1578 41.8148 89.8906 42.2987 89.543C43.2662 88.8481 44.6401 87.8307 46.2851 86.5279C49.5711 83.9255 53.9591 80.1684 58.3557 75.5527C67.0449 66.4306 76.2273 53.4779 76.2273 39.1769C76.2273 34.3585 75.273 29.5876 73.4194 25.1368C71.5657 20.686 68.8491 16.6427 65.4254 13.2376C62.0016 9.83249 57.9378 7.13212 53.4663 5.29003C48.9948 3.44794 44.2028 2.5 39.3636 2.5C34.5245 2.5 29.7325 3.44794 25.261 5.29003C20.7895 7.13212 16.7257 9.83249 13.3019 13.2376C9.87819 16.6427 7.16159 20.686 5.30793 25.1368C3.45425 29.5876 2.5 34.3585 2.5 39.1769C2.5 53.4779 11.6823 66.4306 20.3716 75.5527C24.7682 80.1684 29.1562 83.9255 32.4422 86.5279C34.0872 87.8307 35.4611 88.8481 36.4286 89.543C36.9125 89.8906 37.2951 90.1578 37.5596 90.3399C37.6918 90.431 37.7945 90.5009 37.8657 90.5489L37.9484 90.6046L37.9715 90.62L37.9784 90.6246L37.9806 90.6261C37.9814 90.6266 37.9821 90.6271 39.3636 88.5435Z" stroke="#FC4343" stroke-width="5" stroke-linecap="round" stroke-linejoin="round"/>
<path d="M50.963 46.9001C52.498 44.6152 53.3182 41.9274 53.3182 39.1768C53.3182 35.4879 51.8447 31.9529 49.2262 29.3486C46.6082 26.7448 43.0603 25.2845 39.3637 25.2845C36.6068 25.2845 33.9107 26.0975 31.6162 27.6223C29.3216 29.1471 27.5311 31.3159 26.4733 33.856C25.4153 36.3961 25.1383 39.192 25.6778 41.8896C26.2173 44.587 27.5486 47.0629 29.5012 49.0049C31.4536 50.9467 33.9396 52.2676 36.6439 52.8026C39.3481 53.3376 42.1513 53.0632 44.6994 52.0134C47.2477 50.9636 49.428 49.1849 50.963 46.9001Z" stroke="#FC4343" stroke-width="5" stroke-linecap="round" stroke-linejoin="round"/>
</svg>
