<svg width="26" height="23" viewBox="0 0 26 23" fill="none" xmlns="http://www.w3.org/2000/svg">
<path d="M24.25 5.5H19.25V1.75C19.25 1.41848 19.1183 1.10054 18.8839 0.866116C18.6495 0.631696 18.3315 0.5 18 0.5H8C7.66848 0.5 7.35054 0.631696 7.11612 0.866116C6.8817 1.10054 6.75 1.41848 6.75 1.75V10.5H1.75C1.41848 10.5 1.10054 10.6317 0.866116 10.8661C0.631696 11.1005 0.5 11.4185 0.5 11.75V21.75C0.5 22.0815 0.631696 22.3995 0.866116 22.6339C1.10054 22.8683 1.41848 23 1.75 23H24.25C24.5815 23 24.8995 22.8683 25.1339 22.6339C25.3683 22.3995 25.5 22.0815 25.5 21.75V6.75C25.5 6.41848 25.3683 6.10054 25.1339 5.86612C24.8995 5.6317 24.5815 5.5 24.25 5.5ZM5.5 20.5H3V18H5.5V20.5ZM5.5 15.5H3V13H5.5V15.5ZM11.75 20.5H9.25V18H11.75V20.5ZM11.75 15.5H9.25V13H11.75V15.5ZM11.75 10.5H9.25V8H11.75V10.5ZM11.75 5.5H9.25V3H11.75V5.5ZM16.75 20.5H14.25V18H16.75V20.5ZM16.75 15.5H14.25V13H16.75V15.5ZM16.75 10.5H14.25V8H16.75V10.5ZM16.75 5.5H14.25V3H16.75V5.5ZM23 20.5H20.5V18H23V20.5ZM23 15.5H20.5V13H23V15.5ZM23 10.5H20.5V8H23V10.5Z" fill="#7C9E7B"/>
</svg>
