<svg width="26" height="26" viewBox="0 0 26 26" fill="none" xmlns="http://www.w3.org/2000/svg">
<path d="M13 0.4375C6.1 0.4375 0.5 6.0375 0.5 12.9375C0.5 19.8375 6.1 25.4375 13 25.4375H19.25V22.9375H13C7.575 22.9375 3 18.3625 3 12.9375C3 7.5125 7.575 2.9375 13 2.9375C18.425 2.9375 23 7.5125 23 12.9375V14.725C23 15.7125 22.1125 16.6875 21.125 16.6875C20.1375 16.6875 19.25 15.7125 19.25 14.725V12.9375C19.25 9.4875 16.45 6.6875 13 6.6875C9.55 6.6875 6.75 9.4875 6.75 12.9375C6.75 16.3875 9.55 19.1875 13 19.1875C14.725 19.1875 16.3 18.4875 17.425 17.35C18.2375 18.4625 19.6375 19.1875 21.125 19.1875C23.5875 19.1875 25.5 17.1875 25.5 14.725V12.9375C25.5 6.0375 19.9 0.4375 13 0.4375V0.4375ZM13 16.6875C10.925 16.6875 9.25 15.0125 9.25 12.9375C9.25 10.8625 10.925 9.1875 13 9.1875C15.075 9.1875 16.75 10.8625 16.75 12.9375C16.75 15.0125 15.075 16.6875 13 16.6875Z" fill="#7C9E7B"/>
</svg>
