<svg width="34" height="34" viewBox="0 0 34 34" fill="none" xmlns="http://www.w3.org/2000/svg">
<path d="M17 2.125C8.78555 2.125 2.125 8.78555 2.125 17C2.125 25.2145 8.78555 31.875 17 31.875C25.2145 31.875 31.875 25.2145 31.875 17C31.875 8.78555 25.2145 2.125 17 2.125ZM17 29.3516C10.1801 29.3516 4.64844 23.8199 4.64844 17C4.64844 10.1801 10.1801 4.64844 17 4.64844C23.8199 4.64844 29.3516 10.1801 29.3516 17C29.3516 23.8199 23.8199 29.3516 17 29.3516Z" fill="#7C9E7B"/>
<path d="M15.4062 11.1562C15.4063 11.5789 15.5742 11.9843 15.873 12.2832C16.1719 12.5821 16.5773 12.75 17 12.75C17.4227 12.75 17.8281 12.5821 18.127 12.2832C18.4258 11.9843 18.5938 11.5789 18.5938 11.1562C18.5938 10.7336 18.4258 10.3282 18.127 10.0293C17.8281 9.73041 17.4227 9.5625 17 9.5625C16.5773 9.5625 16.1719 9.73041 15.873 10.0293C15.5742 10.3282 15.4063 10.7336 15.4062 11.1562V11.1562ZM17.7969 14.875H16.2031C16.057 14.875 15.9375 14.9945 15.9375 15.1406V24.1719C15.9375 24.318 16.057 24.4375 16.2031 24.4375H17.7969C17.943 24.4375 18.0625 24.318 18.0625 24.1719V15.1406C18.0625 14.9945 17.943 14.875 17.7969 14.875Z" fill="#7C9E7B"/>
</svg>
