<svg width="30" height="26" viewBox="0 0 30 26" fill="none" xmlns="http://www.w3.org/2000/svg">
<path d="M6.25 2.91016C4.87125 2.91016 3.75 3.85083 3.75 5.00753V17.5918C3.75 18.7485 4.87125 19.6892 6.25 19.6892H10.7325L15 23.2694L19.2675 19.6892H23.75C25.1288 19.6892 26.25 18.7485 26.25 17.5918V5.00753C26.25 3.85083 25.1288 2.91016 23.75 2.91016H6.25ZM23.75 17.5918H18.2325L15 20.3037L11.7675 17.5918H6.25V5.00753H23.75V17.5918Z" fill="#7C9E7B"/>
<path d="M8.75 8.15356H21.25V10.2509H8.75V8.15356ZM8.75 12.3483H17.5V14.4457H8.75V12.3483Z" fill="#7C9E7B"/>
</svg>
