<svg width="30" height="30" viewBox="0 0 30 30" fill="none" xmlns="http://www.w3.org/2000/svg">
<path d="M23.2132 16.3954C24.388 14.8834 25.1092 13.0788 25.2955 11.1852C25.4818 9.29171 25.1257 7.38473 24.2674 5.67957C23.409 3.97442 22.0827 2.53902 20.4381 1.53542C18.7936 0.531821 16.8962 0 14.9603 0C13.0244 0 11.1271 0.531821 9.48248 1.53542C7.8379 2.53902 6.51158 3.97442 5.65326 5.67957C4.79495 7.38473 4.43883 9.29171 4.62511 11.1852C4.81138 13.0788 5.53264 14.8834 6.70744 16.3954C4.63066 17.7198 2.92732 19.5375 1.75501 21.6803C0.58269 23.8231 -0.0207387 26.2219 0.000544073 28.6547C0.00458855 28.9527 0.127923 29.2372 0.343849 29.4466C0.559774 29.6559 0.850917 29.7733 1.15425 29.7733C1.45895 29.7654 1.74847 29.6409 1.96111 29.4263C2.17375 29.2117 2.29269 28.9239 2.29258 28.6244C2.27602 26.4997 2.82171 24.4073 3.87613 22.5523C4.93056 20.6972 6.45751 19.1434 8.30725 18.0431C10.1549 19.5795 12.4925 20.4301 14.9128 20.4467C17.3331 20.4632 19.6826 19.6447 21.5518 18.1338C23.4442 19.225 25.0098 20.788 26.0903 22.6646C27.1707 24.5412 27.7277 26.6649 27.705 28.8209C27.6988 28.9723 27.7235 29.1234 27.7778 29.2652C27.832 29.407 27.9146 29.5367 28.0208 29.6467C28.1269 29.7566 28.2543 29.8445 28.3956 29.9052C28.5369 29.9659 28.6891 29.9981 28.8433 30C29.1466 30 29.4378 29.8827 29.6537 29.6733C29.8696 29.4639 29.9929 29.1795 29.997 28.8814C30.0479 26.4037 29.451 23.9546 28.2632 21.7685C27.0755 19.5823 25.3367 17.7323 23.2132 16.3954V16.3954ZM9.56864 16.0024C9.45944 15.8168 9.29959 15.665 9.10716 15.564C7.7093 14.1144 6.9279 12.1948 6.9228 10.1978C6.90571 8.35627 7.53474 6.56519 8.70402 5.12603C9.8733 3.68686 11.5114 2.68749 13.3427 2.29611C15.1739 1.90474 17.0865 2.14526 18.7584 2.9772C20.4304 3.80914 21.7596 5.1817 22.5224 6.86384C23.2851 8.54598 23.4349 10.435 22.9464 12.2129C22.4579 13.9908 21.361 15.5491 19.8404 16.6255C18.3197 17.7018 16.4682 18.2305 14.5973 18.1225C12.7265 18.0145 10.9506 17.2765 9.56864 16.0326V16.0024Z" fill="#7C9E7B"/>
</svg>
